<?xml version="1.0" encoding="utf-8"?>
<!-- Generator: Adobe Illustrator 28.4.1, SVG Export Plug-In . SVG Version: 6.00 Build 0)  -->
<svg version="1.0" id="katman_1" xmlns="http://www.w3.org/2000/svg" xmlns:xlink="http://www.w3.org/1999/xlink" x="0px" y="0px"
	 viewBox="0 0 64.11 50.3" style="enable-background:new 0 0 64.11 50.3;" xml:space="preserve">
<style type="text/css">
	.st0{fill:#191919;}
	.st1{fill:#00B67A;}
	.st2{fill:#005128;}
	.st3{fill:#DCDCE6;}
	.st4{fill:#FFFFFF;}
</style>
<path id="Shape" class="st0" d="M19.96,17.59h5.16v0.96h-2.03v5.42h-1.12v-5.42h-2.02L19.96,17.59L19.96,17.59z M24.9,19.35h0.95
	v0.89h0.02c0.03-0.13,0.09-0.25,0.18-0.36s0.19-0.23,0.31-0.32c0.12-0.1,0.26-0.18,0.41-0.24c0.15-0.06,0.3-0.09,0.45-0.09
	c0.12,0,0.2,0,0.25,0.01c0.05,0,0.09,0.01,0.14,0.02v0.98c-0.07-0.01-0.14-0.02-0.22-0.03c-0.08-0.01-0.15-0.01-0.22-0.01
	c-0.17,0-0.33,0.04-0.49,0.1c-0.15,0.07-0.28,0.17-0.4,0.3c-0.11,0.14-0.2,0.3-0.27,0.5c-0.07,0.2-0.1,0.42-0.1,0.68v2.2H24.9
	L24.9,19.35L24.9,19.35z M32.29,23.97h-1v-0.64h-0.02c-0.13,0.23-0.31,0.42-0.56,0.56c-0.25,0.14-0.5,0.21-0.76,0.21
	c-0.61,0-1.05-0.15-1.32-0.45s-0.41-0.76-0.41-1.36v-2.93h1.02v2.83c0,0.41,0.08,0.69,0.23,0.86c0.15,0.17,0.37,0.25,0.65,0.25
	c0.22,0,0.39-0.03,0.54-0.1c0.14-0.07,0.26-0.15,0.35-0.27c0.09-0.11,0.15-0.24,0.19-0.4s0.06-0.32,0.06-0.5v-2.68h1.02V23.97z
	 M34.02,22.49c0.03,0.3,0.14,0.5,0.34,0.63c0.2,0.12,0.43,0.18,0.71,0.18c0.09,0,0.2-0.01,0.32-0.02c0.12-0.01,0.24-0.05,0.34-0.09
	c0.11-0.04,0.19-0.1,0.27-0.18c0.07-0.08,0.1-0.18,0.09-0.32c0-0.13-0.05-0.24-0.14-0.32c-0.09-0.09-0.2-0.15-0.34-0.2
	c-0.14-0.05-0.3-0.09-0.48-0.13s-0.36-0.08-0.54-0.12c-0.19-0.04-0.37-0.09-0.55-0.15s-0.33-0.14-0.47-0.24
	c-0.14-0.1-0.25-0.23-0.33-0.39c-0.09-0.16-0.13-0.35-0.13-0.59c0-0.25,0.06-0.46,0.18-0.63s0.28-0.31,0.46-0.41
	c0.19-0.1,0.4-0.18,0.63-0.22c0.23-0.04,0.45-0.06,0.66-0.06c0.24,0,0.47,0.03,0.68,0.08c0.22,0.05,0.41,0.13,0.59,0.25
	c0.18,0.11,0.32,0.26,0.44,0.44c0.12,0.18,0.19,0.4,0.22,0.66H35.9c-0.05-0.24-0.16-0.41-0.33-0.49c-0.18-0.09-0.38-0.13-0.6-0.13
	c-0.07,0-0.16,0-0.26,0.02c-0.1,0.01-0.19,0.04-0.28,0.07c-0.09,0.03-0.16,0.08-0.22,0.14c-0.06,0.06-0.09,0.14-0.09,0.25
	c0,0.13,0.05,0.23,0.13,0.3c0.09,0.08,0.2,0.14,0.34,0.19c0.14,0.05,0.3,0.09,0.48,0.13c0.18,0.04,0.36,0.08,0.55,0.12
	c0.18,0.04,0.36,0.09,0.54,0.15c0.18,0.06,0.34,0.14,0.48,0.24s0.25,0.23,0.34,0.38c0.09,0.15,0.13,0.35,0.13,0.57
	c0,0.27-0.06,0.5-0.19,0.7c-0.13,0.19-0.29,0.35-0.49,0.46c-0.2,0.12-0.42,0.21-0.67,0.26s-0.49,0.08-0.72,0.08
	c-0.29,0-0.56-0.03-0.81-0.1c-0.25-0.07-0.46-0.17-0.64-0.3c-0.18-0.14-0.32-0.3-0.43-0.5c-0.1-0.2-0.16-0.44-0.17-0.71L34.02,22.49
	L34.02,22.49z M37.38,19.35h0.77v-1.39h1.02v1.39h0.92v0.76h-0.92v2.47c0,0.11,0,0.2,0.01,0.28c0.01,0.08,0.03,0.14,0.06,0.2
	s0.08,0.09,0.15,0.12c0.07,0.03,0.15,0.04,0.27,0.04c0.07,0,0.14,0,0.22,0c0.07,0,0.14-0.01,0.22-0.03v0.79
	c-0.11,0.01-0.23,0.02-0.33,0.04c-0.11,0.01-0.22,0.02-0.33,0.02c-0.27,0-0.49-0.03-0.65-0.08c-0.16-0.05-0.29-0.13-0.38-0.23
	c-0.09-0.1-0.15-0.22-0.19-0.37c-0.03-0.15-0.05-0.32-0.06-0.51v-2.72h-0.77L37.38,19.35L37.38,19.35z M40.81,19.35h0.96v0.63h0.02
	c0.14-0.27,0.34-0.46,0.6-0.58c0.26-0.12,0.53-0.18,0.83-0.18c0.36,0,0.68,0.06,0.95,0.19c0.27,0.13,0.5,0.3,0.68,0.53
	s0.31,0.49,0.4,0.78c0.09,0.3,0.14,0.62,0.14,0.95c0,0.31-0.04,0.61-0.12,0.9c-0.08,0.29-0.2,0.55-0.36,0.77
	c-0.16,0.23-0.37,0.4-0.62,0.54c-0.25,0.14-0.54,0.2-0.89,0.2c-0.15,0-0.3-0.01-0.45-0.04c-0.15-0.03-0.29-0.07-0.43-0.13
	c-0.14-0.06-0.27-0.14-0.38-0.23c-0.12-0.09-0.21-0.2-0.29-0.32h-0.02v2.31h-1.02V19.35L40.81,19.35z M44.36,21.66
	c0-0.21-0.03-0.41-0.08-0.61c-0.05-0.2-0.14-0.37-0.24-0.52s-0.24-0.27-0.4-0.36c-0.16-0.09-0.35-0.14-0.55-0.14
	c-0.43,0-0.75,0.15-0.97,0.45c-0.22,0.3-0.32,0.69-0.32,1.19c0,0.23,0.03,0.45,0.09,0.65c0.06,0.2,0.14,0.37,0.26,0.51
	c0.11,0.14,0.25,0.26,0.41,0.34c0.16,0.09,0.34,0.13,0.55,0.13c0.23,0,0.43-0.05,0.59-0.14c0.16-0.09,0.29-0.22,0.4-0.37
	c0.1-0.15,0.18-0.32,0.23-0.52C44.34,22.06,44.36,21.86,44.36,21.66z M46.16,17.59h1.02v0.96h-1.02V17.59z M46.16,19.35h1.02v4.62
	h-1.02V19.35z M48.09,17.59h1.02v6.38h-1.02V17.59z M52.22,24.09c-0.37,0-0.7-0.06-0.99-0.18c-0.29-0.12-0.53-0.29-0.73-0.5
	c-0.2-0.22-0.35-0.47-0.45-0.77c-0.1-0.3-0.16-0.63-0.16-0.98c0-0.35,0.05-0.68,0.16-0.97c0.1-0.3,0.26-0.55,0.45-0.77
	s0.45-0.38,0.73-0.5c0.29-0.12,0.62-0.18,0.99-0.18c0.37,0,0.7,0.06,0.99,0.18c0.29,0.12,0.53,0.29,0.73,0.5
	c0.2,0.22,0.35,0.47,0.45,0.77c0.1,0.3,0.16,0.62,0.16,0.97c0,0.36-0.05,0.68-0.16,0.98c-0.1,0.3-0.26,0.55-0.45,0.77
	s-0.45,0.38-0.73,0.5C52.92,24.03,52.59,24.09,52.22,24.09z M52.22,23.29c0.23,0,0.42-0.05,0.59-0.14c0.17-0.09,0.3-0.22,0.41-0.37
	c0.11-0.15,0.18-0.33,0.24-0.52c0.05-0.19,0.08-0.39,0.08-0.59c0-0.2-0.03-0.39-0.08-0.59c-0.05-0.2-0.13-0.37-0.24-0.52
	s-0.24-0.27-0.41-0.37c-0.17-0.09-0.36-0.14-0.59-0.14c-0.23,0-0.42,0.05-0.59,0.14c-0.17,0.09-0.3,0.22-0.41,0.37
	c-0.11,0.15-0.18,0.32-0.24,0.52c-0.05,0.2-0.08,0.39-0.08,0.59c0,0.2,0.03,0.4,0.08,0.59c0.05,0.19,0.13,0.37,0.24,0.52
	c0.11,0.15,0.24,0.28,0.41,0.37C51.8,23.24,52,23.29,52.22,23.29z M54.85,19.35h0.77v-1.39h1.02v1.39h0.92v0.76h-0.92v2.47
	c0,0.11,0,0.2,0.01,0.28c0.01,0.08,0.03,0.14,0.06,0.2s0.08,0.09,0.15,0.12c0.07,0.03,0.15,0.04,0.27,0.04c0.07,0,0.14,0,0.22,0
	c0.07,0,0.14-0.01,0.22-0.03v0.79c-0.11,0.01-0.23,0.02-0.33,0.04c-0.11,0.01-0.22,0.02-0.33,0.02c-0.27,0-0.49-0.03-0.65-0.08
	c-0.16-0.05-0.29-0.13-0.38-0.23c-0.09-0.1-0.15-0.22-0.19-0.37c-0.03-0.15-0.05-0.32-0.06-0.51v-2.72h-0.77L54.85,19.35
	L54.85,19.35z"/>
<g id="Star">
	<polygon id="Path" class="st1" points="18.77,17.59 14.11,17.59 12.67,13.15 11.22,17.59 6.56,17.58 10.33,20.33 8.89,24.76 
		12.67,22.02 16.44,24.76 15,20.33 18.77,17.59 	"/>
	<polygon id="Path_00000139974370896774244940000013599419466242447510_" class="st2" points="15.32,21.33 15,20.33 12.67,22.02 	
		"/>
</g>
<rect id="Rectangle" x="6.56" y="27.59" class="st1" width="9.56" height="9.56"/>
<rect id="Rectangle_00000119823381696065812290000006309620969489227403_" x="16.91" y="27.59" class="st1" width="9.56" height="9.56"/>
<rect id="Rectangle_00000111193577153650357570000000971353195221845171_" x="27.27" y="27.59" class="st1" width="9.56" height="9.56"/>
<rect id="Rectangle_00000008833768892528033700000000322006702697863864_" x="37.63" y="27.59" class="st1" width="9.56" height="9.56"/>
<rect id="Rectangle_00000134962926880305233990000003318531366453452990_" x="47.99" y="27.59" class="st3" width="9.56" height="9.56"/>
<polygon id="Rectangle_00000044876543712720924350000008132246518786235026_" class="st1" points="47.99,27.59 57.56,27.59 
	57.52,37.15 47.99,37.15 "/>
<path id="Shape_00000004503963772281965500000004689748023012954798_" class="st4" d="M11.34,34.03l1.45-0.37l0.61,1.87L11.34,34.03
	z M14.68,31.61h-2.56l-0.79-2.41l-0.79,2.41H7.99l2.07,1.49l-0.79,2.41l2.07-1.49l1.27-0.92L14.68,31.61L14.68,31.61L14.68,31.61
	L14.68,31.61z"/>
<path id="Shape_00000062892359206520126170000006215398374882685355_" class="st4" d="M21.7,34.03l1.45-0.37l0.61,1.87L21.7,34.03z
	 M25.04,31.61h-2.56L21.7,29.2l-0.79,2.41h-2.56l2.07,1.49l-0.79,2.41l2.07-1.49l1.27-0.92L25.04,31.61L25.04,31.61L25.04,31.61
	L25.04,31.61z"/>
<path id="Shape_00000041986034659674372480000017210300048664811149_" class="st4" d="M32.06,34.03l1.45-0.37l0.61,1.87L32.06,34.03
	z M35.4,31.61h-2.56l-0.79-2.41l-0.79,2.41h-2.56l2.07,1.49l-0.79,2.41l2.07-1.49l1.28-0.92L35.4,31.61L35.4,31.61L35.4,31.61
	L35.4,31.61z"/>
<path id="Shape_00000155124147350657945740000004241176506388462744_" class="st4" d="M42.41,34.03l1.45-0.37l0.61,1.87L42.41,34.03
	z M45.76,31.61H43.2l-0.79-2.41l-0.79,2.41h-2.56l2.07,1.49l-0.79,2.41l2.07-1.49l1.28-0.92L45.76,31.61L45.76,31.61L45.76,31.61
	L45.76,31.61z"/>
<path id="Shape_00000131362776327819300620000011855054010791946398_" class="st4" d="M52.77,34.03l1.45-0.37l0.61,1.87L52.77,34.03
	z M56.12,31.61h-2.56l-0.79-2.41l-0.79,2.41h-2.56l2.07,1.49l-0.79,2.41l2.07-1.49l1.28-0.92L56.12,31.61L56.12,31.61L56.12,31.61
	L56.12,31.61z"/>
</svg>
